<svg height="512" viewBox="0 0 60 60" width="512" xmlns="http://www.w3.org/2000/svg"><g id="Page-1" fill="none" fill-rule="evenodd"><g id="001---Present" fill-rule="nonzero"><path id="Shape" d="m54 21v7c0 .5522847-.4477153 1-1 1h-46c-.55228475 0-1-.4477153-1-1v-7c.0032948-1.1032019.89679813-1.9967052 2-2h44c1.1032019.0032948 1.9967052.8967981 2 2z" fill="#f44335"/><path id="Shape" d="m52 19h-3c1.1032019.0032948 1.9967052.8967981 2 2v7c0 .5522847-.4477153 1-1 1h3c.5522847 0 1-.4477153 1-1v-7c-.0032948-1.1032019-.8967981-1.9967052-2-2z" fill="#c81e1e"/><path id="Shape" d="m52 29v28c0 1.1045695-.8954305 2-2 2h-40c-1.1045695 0-2-.8954305-2-2v-28z" fill="#f44335"/><path id="Shape" d="m49 29v28c0 1.1045695-.8954305 2-2 2h3c1.1045695 0 2-.8954305 2-2v-28z" fill="#c81e1e"/><path id="Shape" d="m35 17 .0000837 2h-10.0001674l.0000837-2c-.0032559-.483151.0884828-.9622311.27-1.41.5805122-1.55752 2.0678138-2.5902575 3.73-2.59h2c1.662277-.0005477 3.1497279 1.0322935 3.73 2.59.1815172.4477689.2732559.926849.27 1.41z" fill="#ffeb3a"/><path id="Shape" d="m34.73 15.59c-.5802721-1.5577065-2.067723-2.5905477-3.73-2.59h-2c-.1673245.0023956-.3343277.0154219-.5.039 1.4680807.1816004 2.7131715 1.1649523 3.23 2.551.1815172.4477689.2732559.926849.27 1.41v2h3v-2c.0032559-.483151-.0884828-.9622311-.27-1.41z" fill="#fdd834"/><path id="Shape" d="m30 13h-1c-2.209139 0-4 1.790861-4 4v2h-7.15c-3.45-1.36-5.95-4.58-7.2-6.49-.75670749-1.1546406-.86261672-2.61845739-.28-3.87 1.324372-3.12665371 3.6971438-5.69391501 6.71-7.26.470871-.25826413 1.0034351-.38275963 1.54-.36 6.319.395 10.291 6.068 11.38 11.98z" fill="#ffdc00"/><path id="Shape" d="m26.89 13.61c-.7492128.4568451-1.3205603 1.1551587-1.62 1.98-4.31-2.62-5.75-7.89-6.14-9.84-.032368-.17310565.0274102-.35060791.1579023-.46886638s.3130035-.16033116.4820977-.11113362c4.65 1.31 6.65 6.9 7.12 8.44z" fill="#ff9801"/><path id="Shape" d="m49.35 12.5c-1.25 1.92-3.75 5.14-7.2 6.5h-7.15v-2c0-2.209139-1.790861-4-4-4h-1c.973-5.778 5.056-11.6 11.38-11.99.5374401-.03255687 1.0726877.09256594 1.54.36 3.1674506 1.60906414 5.6181469 4.3451399 6.87 7.67.3964937 1.1592975.2340318 2.4368387-.44 3.46z" fill="#ffdc00"/><path id="Shape" d="m49.79 9.04c-1.2518531-3.3248601-3.7025494-6.06093586-6.87-7.67-1.0291052-.45876895-2.1956827-.50212149-3.256-.121 3.2894289 1.58320767 5.8417765 4.37374101 7.126 7.791.3964937 1.1592975.2340318 2.4368387-.44 3.46-1.25 1.92-3.75 5.14-7.2 6.5h3c3.45-1.36 5.95-4.58 7.2-6.5.6740318-1.0231613.8364937-2.3007025.44-3.46z" fill="#fec108"/><path id="Shape" d="m40.87 5.75c-.39 1.95-1.83 7.22-6.14 9.84-.2994397-.8248413-.8707872-1.5231549-1.62-1.98.47-1.54 2.47-7.13 7.12-8.44.1690942-.04919754.3516056-.00712485.4820977.11113362s.1902703.29576073.1579023.46886638z" fill="#ff9801"/><path id="Rectangle-path" d="m24 19h12v10h-12z" fill="#ffdc00"/><path id="Rectangle-path" d="m33 19h3v10h-3z" fill="#fec108"/><path id="Rectangle-path" d="m26 29h8v30h-8z" fill="#ff9801"/><path id="Rectangle-path" d="m31 29h3v30h-3z" fill="#f57c00"/><path id="Shape" d="m17.85 19h-5.85c-7 0-11-9-11-9h5v-5l4.37 3.64c-.58261672 1.25154261-.47670749 2.7153594.28 3.87 1.25 1.91 3.75 5.13 7.2 6.49z" fill="#ff9801"/><path id="Shape" d="m59 10s-4 9-11 9h-5.85c3.45-1.36 5.95-4.58 7.2-6.5.7529501-1.151549.8624383-2.60887514.29-3.86l4.36-3.64v5z" fill="#ff9801"/><path id="Shape" d="m56 10s-4 9-11 9h3c7 0 11-9 11-9z" fill="#f57c00"/><g fill="#f5f5f5"><path id="Shape" d="m12 36c-.5522847 0-1-.4477153-1-1v-2c0-.5522847.4477153-1 1-1s1 .4477153 1 1v2c0 .5522847-.4477153 1-1 1z"/><path id="Shape" d="m12 56c-.5522847 0-1-.4477153-1-1v-16c0-.5522847.4477153-1 1-1s1 .4477153 1 1v16c0 .5522847-.4477153 1-1 1z"/><path id="Shape" d="m48 36c-.5522847 0-1-.4477153-1-1v-2c0-.5522847.4477153-1 1-1s1 .4477153 1 1v2c0 .5522847-.4477153 1-1 1z"/><path id="Shape" d="m48 56c-.5522847 0-1-.4477153-1-1v-16c0-.5522847.4477153-1 1-1s1 .4477153 1 1v16c0 .5522847-.4477153 1-1 1z"/></g><path id="Shape" d="m6.646 18.338c-1.00602228.5067409-1.64217807 1.5355664-1.646 2.662v7c0 1.1045695.8954305 2 2 2v27c0 1.6568542 1.34314575 3 3 3h40c1.6568542 0 3-1.3431458 3-3v-27c1.1045695 0 2-.8954305 2-2v-7c-.0038219-1.1264336-.6399777-2.1552591-1.646-2.662 4.16-2.667 6.433-7.646 6.56-7.932.1374322-.3093488.1090377-.66722381-.0754567-.95103028s-.5000403-.45501269-.8385433-.45496972h-4v-4c.0001783-.38829271-.2244341-.74158606-.5761176-.90617649-.3516834-.16459043-.7668519-.11071921-1.0648824.13817649l-3.339 2.788c-1.5225886-2.77672458-3.8236045-5.0478481-6.62-6.534-.6362809-.35121024-1.3582267-.51714691-2.084-.479-6.698.419-9.906 5.832-11.316 9.493-1.416-3.657-4.624-9.056-11.316-9.474-.7253972-.0408601-1.4476368.12341129-2.084.474-2.7914647 1.4835558-5.0896352 3.74905909-6.613 6.519l-3.347-2.788c-.29819654-.248376-.71317063-.30179248-1.06454722-.13703114-.3513766.16476134-.57569543.51794384-.57545278.90603114v4h-4c-.33850301-.00004297-.6540489.17116325-.83854329.45496972s-.21288894.64168148-.07545671.95103028c.127.286 2.4 5.265 6.56 7.932zm16.354 1.662v8h-16v-7c0-.5522847.44771525-1 1-1zm1.93-5.884c-2.3241918-2.0019246-3.9434727-4.69780478-4.619-7.69 3.159 1.384 4.81 5.153 5.408 6.831-.2954707.2547168-.5602561.5429939-.789.859zm1.07 2.884c0-1.6568542 1.3431458-3 3-3h2c1.6568542 0 3 1.3431458 3 3v1h-8zm9 11h-10v-8h10zm-.719-14.743c.6-1.678 2.25-5.447 5.408-6.831-.6749947 2.99240882-2.2943695 5.6884453-4.619 7.69-.2287439-.3160061-.4935293-.6042832-.789-.859zm-25.281 43.743v-27h16v28h-15c-.55228475 0-1-.4477153-1-1zm18 1v-28h6v28zm24-1c0 .5522847-.4477153 1-1 1h-15v-28h16zm1-37c.5522847 0 1 .4477153 1 1v7h-16v-8zm2-9h3.344c-1.39 2.393-4.674 7-9.344 7h-2.24c1.7258359-1.4094026 3.221159-3.079495 4.432-4.95.7862203-1.2067963 1.009883-2.6954483.613-4.08l2.195-1.832v2.862c0 .5522847.4477153 1 1 1zm-12.559-9c.3520449-.01544828.7013393.06841011 1.008.242 1.474.8 5.048 3.085 6.392 7.115.2975276.8702609.1784235 1.8289934-.323 2.6-1.118 1.709-3.446 4.734-6.588 6.043h-5.93v-1c-.0001254-.3328454-.0336264-.6648395-.1-.991 4.1-2.9 5.522-7.948 5.95-10.064.1045463-.50960976-.0663316-1.03667312-.45-1.388-.3869897-.3619896-.9358332-.493788-1.445-.347-4.349 1.225-6.549 5.654-7.443 8.05-.4115575-.1336154-.8388751-.2126238-1.271-.235.739-2.765 3.253-9.587 10.2-10.025zm-30.282 7.371c1.341-4.025 4.917-6.311 6.391-7.107.307635-.17203324.6567999-.25577746 1.009-.242 6.941.434 9.456 7.236 10.2 10-.4314604.0224697-.8581048.101478-1.269.235-.894-2.4-3.094-6.825-7.443-8.05-.5092025-.14514552-1.0572326-.01354245-1.445.347-.3825757.35195839-.5522843.8789282-.447 1.388.423 2.119 1.845 7.17 5.945 10.067-.0663736.3261605-.0998746.6581546-.1.991v1h-5.93c-3.142-1.307-5.472-4.329-6.588-6.037-.5004729-.7683797-.6195935-1.7242945-.323-2.592zm-5.159 1.629c.55228475 0 1-.4477153 1-1v-2.866l2.2 1.832c-.40169941 1.3873347-.17937364 2.8808236.609 4.091 1.2097941 1.8680434 2.7037789 3.5357866 4.428 4.943h-2.237c-4.657 0-7.946-4.606-9.341-7z" fill="#000"/></g></g></svg>